<mxfile host="app.diagrams.net" modified="2022-08-12T16:05:35.947Z" agent="5.0 (Windows NT 10.0; Win64; x64) AppleWebKit/537.36 (KHTML, like Gecko) Chrome/104.0.0.0 Safari/537.36" etag="avyYRD14sb1wxHR_ljO_" version="19.0.0" type="github" pages="2">
  <diagram id="C5RBs43oDa-KdzZeNtuy" name="cáculo mezclas">
    <mxGraphModel dx="1663" dy="983" grid="1" gridSize="10" guides="1" tooltips="1" connect="1" arrows="1" fold="1" page="1" pageScale="1" pageWidth="827" pageHeight="1169" math="0" shadow="0">
      <root>
        <mxCell id="WIyWlLk6GJQsqaUBKTNV-0" />
        <mxCell id="WIyWlLk6GJQsqaUBKTNV-1" parent="WIyWlLk6GJQsqaUBKTNV-0" />
        <mxCell id="858d7Q5gldCjWAl6JRSs-39" style="edgeStyle=orthogonalEdgeStyle;rounded=0;orthogonalLoop=1;jettySize=auto;html=1;fontSize=10;fontColor=#000000;" edge="1" parent="WIyWlLk6GJQsqaUBKTNV-1" source="WIyWlLk6GJQsqaUBKTNV-3" target="858d7Q5gldCjWAl6JRSs-1">
          <mxGeometry relative="1" as="geometry" />
        </mxCell>
        <mxCell id="WIyWlLk6GJQsqaUBKTNV-3" value="Elegir volumen bomba" style="rounded=1;whiteSpace=wrap;html=1;fontSize=12;glass=0;strokeWidth=1;shadow=0;fillColor=#d5e8d4;strokeColor=#82b366;" parent="WIyWlLk6GJQsqaUBKTNV-1" vertex="1">
          <mxGeometry x="160" y="120" width="120" height="40" as="geometry" />
        </mxCell>
        <mxCell id="858d7Q5gldCjWAl6JRSs-40" style="edgeStyle=orthogonalEdgeStyle;rounded=0;orthogonalLoop=1;jettySize=auto;html=1;fontSize=10;fontColor=#000000;" edge="1" parent="WIyWlLk6GJQsqaUBKTNV-1" source="858d7Q5gldCjWAl6JRSs-1" target="858d7Q5gldCjWAl6JRSs-5">
          <mxGeometry relative="1" as="geometry" />
        </mxCell>
        <mxCell id="858d7Q5gldCjWAl6JRSs-1" value="Elegir fármaco 1&lt;br&gt;&lt;div style=&quot;text-align: left;&quot;&gt;&lt;span style=&quot;background-color: initial;&quot;&gt;- Nombre&lt;/span&gt;&lt;br&gt;&lt;/div&gt;&lt;div style=&quot;text-align: left;&quot;&gt;&lt;span style=&quot;background-color: initial;&quot;&gt;- Concentración&lt;/span&gt;&lt;/div&gt;&lt;div style=&quot;text-align: left;&quot;&gt;&lt;span style=&quot;background-color: initial;&quot;&gt;- Presentación&lt;/span&gt;&lt;/div&gt;" style="rounded=1;whiteSpace=wrap;html=1;fontSize=12;glass=0;strokeWidth=1;shadow=0;fillColor=#d5e8d4;strokeColor=#82b366;" vertex="1" parent="WIyWlLk6GJQsqaUBKTNV-1">
          <mxGeometry x="160" y="180" width="120" height="70" as="geometry" />
        </mxCell>
        <mxCell id="858d7Q5gldCjWAl6JRSs-41" style="edgeStyle=orthogonalEdgeStyle;rounded=0;orthogonalLoop=1;jettySize=auto;html=1;fontSize=10;fontColor=#000000;" edge="1" parent="WIyWlLk6GJQsqaUBKTNV-1" source="858d7Q5gldCjWAl6JRSs-5" target="858d7Q5gldCjWAl6JRSs-6">
          <mxGeometry relative="1" as="geometry" />
        </mxCell>
        <mxCell id="858d7Q5gldCjWAl6JRSs-5" value="Calcular cantidad y la carga del fármaco 1" style="rounded=1;whiteSpace=wrap;html=1;fontSize=12;glass=0;strokeWidth=1;shadow=0;fillColor=#dae8fc;strokeColor=#6c8ebf;" vertex="1" parent="WIyWlLk6GJQsqaUBKTNV-1">
          <mxGeometry x="160" y="270" width="120" height="40" as="geometry" />
        </mxCell>
        <mxCell id="858d7Q5gldCjWAl6JRSs-42" style="edgeStyle=orthogonalEdgeStyle;rounded=0;orthogonalLoop=1;jettySize=auto;html=1;fontSize=10;fontColor=#000000;" edge="1" parent="WIyWlLk6GJQsqaUBKTNV-1" source="858d7Q5gldCjWAl6JRSs-6" target="858d7Q5gldCjWAl6JRSs-7">
          <mxGeometry relative="1" as="geometry" />
        </mxCell>
        <mxCell id="858d7Q5gldCjWAl6JRSs-6" value="Elegir dosis fármaco 1" style="rounded=1;whiteSpace=wrap;html=1;fontSize=12;glass=0;strokeWidth=1;shadow=0;fillColor=#d5e8d4;strokeColor=#82b366;" vertex="1" parent="WIyWlLk6GJQsqaUBKTNV-1">
          <mxGeometry x="160" y="330" width="120" height="40" as="geometry" />
        </mxCell>
        <mxCell id="858d7Q5gldCjWAl6JRSs-43" style="edgeStyle=orthogonalEdgeStyle;rounded=0;orthogonalLoop=1;jettySize=auto;html=1;fontSize=10;fontColor=#000000;" edge="1" parent="WIyWlLk6GJQsqaUBKTNV-1" source="858d7Q5gldCjWAl6JRSs-7" target="858d7Q5gldCjWAl6JRSs-8">
          <mxGeometry relative="1" as="geometry" />
        </mxCell>
        <mxCell id="858d7Q5gldCjWAl6JRSs-7" value="Calcular flujo bomba" style="rounded=1;whiteSpace=wrap;html=1;fontSize=12;glass=0;strokeWidth=1;shadow=0;fillColor=#dae8fc;strokeColor=#6c8ebf;" vertex="1" parent="WIyWlLk6GJQsqaUBKTNV-1">
          <mxGeometry x="160" y="390" width="120" height="40" as="geometry" />
        </mxCell>
        <mxCell id="858d7Q5gldCjWAl6JRSs-13" style="edgeStyle=orthogonalEdgeStyle;rounded=0;orthogonalLoop=1;jettySize=auto;html=1;" edge="1" parent="WIyWlLk6GJQsqaUBKTNV-1" source="858d7Q5gldCjWAl6JRSs-8" target="858d7Q5gldCjWAl6JRSs-10">
          <mxGeometry relative="1" as="geometry">
            <Array as="points">
              <mxPoint x="300" y="500" />
              <mxPoint x="300" y="500" />
            </Array>
          </mxGeometry>
        </mxCell>
        <mxCell id="858d7Q5gldCjWAl6JRSs-16" style="edgeStyle=orthogonalEdgeStyle;rounded=0;orthogonalLoop=1;jettySize=auto;html=1;fontSize=10;" edge="1" parent="WIyWlLk6GJQsqaUBKTNV-1" source="858d7Q5gldCjWAl6JRSs-8" target="858d7Q5gldCjWAl6JRSs-15">
          <mxGeometry relative="1" as="geometry" />
        </mxCell>
        <mxCell id="858d7Q5gldCjWAl6JRSs-8" value="¿añadir más fármacos?" style="rhombus;whiteSpace=wrap;html=1;" vertex="1" parent="WIyWlLk6GJQsqaUBKTNV-1">
          <mxGeometry x="165" y="460" width="110" height="80" as="geometry" />
        </mxCell>
        <mxCell id="858d7Q5gldCjWAl6JRSs-35" style="edgeStyle=orthogonalEdgeStyle;rounded=0;orthogonalLoop=1;jettySize=auto;html=1;fontSize=10;fontColor=#000000;" edge="1" parent="WIyWlLk6GJQsqaUBKTNV-1" source="858d7Q5gldCjWAl6JRSs-10" target="858d7Q5gldCjWAl6JRSs-34">
          <mxGeometry relative="1" as="geometry" />
        </mxCell>
        <mxCell id="858d7Q5gldCjWAl6JRSs-10" value="Calcular carga SF" style="rounded=1;whiteSpace=wrap;html=1;fontSize=12;glass=0;strokeWidth=1;shadow=0;fillColor=#dae8fc;strokeColor=#6c8ebf;" vertex="1" parent="WIyWlLk6GJQsqaUBKTNV-1">
          <mxGeometry x="310" y="475" width="116" height="40" as="geometry" />
        </mxCell>
        <mxCell id="858d7Q5gldCjWAl6JRSs-14" value="&lt;font style=&quot;font-size: 10px;&quot;&gt;NO&lt;/font&gt;" style="text;html=1;strokeColor=none;fillColor=none;align=center;verticalAlign=middle;whiteSpace=wrap;rounded=0;" vertex="1" parent="WIyWlLk6GJQsqaUBKTNV-1">
          <mxGeometry x="260" y="475" width="60" height="30" as="geometry" />
        </mxCell>
        <mxCell id="858d7Q5gldCjWAl6JRSs-44" style="edgeStyle=orthogonalEdgeStyle;rounded=0;orthogonalLoop=1;jettySize=auto;html=1;fontSize=10;fontColor=#000000;" edge="1" parent="WIyWlLk6GJQsqaUBKTNV-1" source="858d7Q5gldCjWAl6JRSs-15" target="858d7Q5gldCjWAl6JRSs-18">
          <mxGeometry relative="1" as="geometry" />
        </mxCell>
        <mxCell id="858d7Q5gldCjWAl6JRSs-15" value="Elegir fármaco N&lt;br&gt;- Nombre&lt;br&gt;- Presentación&lt;br&gt;- Dosis" style="rounded=1;whiteSpace=wrap;html=1;fontSize=12;glass=0;strokeWidth=1;shadow=0;fillColor=#d5e8d4;strokeColor=#82b366;align=left;" vertex="1" parent="WIyWlLk6GJQsqaUBKTNV-1">
          <mxGeometry x="160" y="570" width="120" height="70" as="geometry" />
        </mxCell>
        <mxCell id="858d7Q5gldCjWAl6JRSs-17" value="&lt;font style=&quot;font-size: 10px;&quot;&gt;SÍ&lt;/font&gt;" style="text;html=1;strokeColor=none;fillColor=none;align=center;verticalAlign=middle;whiteSpace=wrap;rounded=0;" vertex="1" parent="WIyWlLk6GJQsqaUBKTNV-1">
          <mxGeometry x="200" y="530" width="60" height="30" as="geometry" />
        </mxCell>
        <mxCell id="858d7Q5gldCjWAl6JRSs-45" style="edgeStyle=orthogonalEdgeStyle;rounded=0;orthogonalLoop=1;jettySize=auto;html=1;fontSize=10;fontColor=#000000;" edge="1" parent="WIyWlLk6GJQsqaUBKTNV-1" source="858d7Q5gldCjWAl6JRSs-18" target="858d7Q5gldCjWAl6JRSs-19">
          <mxGeometry relative="1" as="geometry" />
        </mxCell>
        <mxCell id="858d7Q5gldCjWAl6JRSs-18" value="Calcular concentración fármaco N (marcada por el fármaco 1)" style="rounded=1;whiteSpace=wrap;html=1;fontSize=12;glass=0;strokeWidth=1;shadow=0;fillColor=#dae8fc;strokeColor=#6c8ebf;" vertex="1" parent="WIyWlLk6GJQsqaUBKTNV-1">
          <mxGeometry x="160" y="660" width="120" height="70" as="geometry" />
        </mxCell>
        <mxCell id="858d7Q5gldCjWAl6JRSs-19" value="Calcular la cantidad y la carga del fármaco N" style="rounded=1;whiteSpace=wrap;html=1;fontSize=12;glass=0;strokeWidth=1;shadow=0;fillColor=#dae8fc;strokeColor=#6c8ebf;" vertex="1" parent="WIyWlLk6GJQsqaUBKTNV-1">
          <mxGeometry x="160" y="750" width="120" height="50" as="geometry" />
        </mxCell>
        <mxCell id="858d7Q5gldCjWAl6JRSs-24" style="edgeStyle=orthogonalEdgeStyle;rounded=0;orthogonalLoop=1;jettySize=auto;html=1;fontSize=10;entryX=0;entryY=0.5;entryDx=0;entryDy=0;exitX=0.5;exitY=1;exitDx=0;exitDy=0;" edge="1" parent="WIyWlLk6GJQsqaUBKTNV-1" source="858d7Q5gldCjWAl6JRSs-19" target="858d7Q5gldCjWAl6JRSs-8">
          <mxGeometry relative="1" as="geometry">
            <mxPoint x="50" y="540" as="targetPoint" />
            <mxPoint x="220" y="830" as="sourcePoint" />
            <Array as="points">
              <mxPoint x="220" y="810" />
              <mxPoint x="90" y="810" />
              <mxPoint x="90" y="500" />
            </Array>
          </mxGeometry>
        </mxCell>
        <mxCell id="858d7Q5gldCjWAl6JRSs-26" value="Comprobar dosis máxima" style="rounded=1;whiteSpace=wrap;html=1;fontSize=12;glass=0;strokeWidth=1;shadow=0;fillColor=#f8cecc;strokeColor=#b85450;" vertex="1" parent="WIyWlLk6GJQsqaUBKTNV-1">
          <mxGeometry x="30" y="330" width="120" height="40" as="geometry" />
        </mxCell>
        <mxCell id="858d7Q5gldCjWAl6JRSs-27" value="Comprobar dosis máxima" style="rounded=1;whiteSpace=wrap;html=1;fontSize=12;glass=0;strokeWidth=1;shadow=0;fillColor=#f8cecc;strokeColor=#b85450;" vertex="1" parent="WIyWlLk6GJQsqaUBKTNV-1">
          <mxGeometry x="294" y="585" width="120" height="40" as="geometry" />
        </mxCell>
        <mxCell id="858d7Q5gldCjWAl6JRSs-28" value="Obtener presentación asociada al fármaco" style="rounded=1;whiteSpace=wrap;html=1;fontSize=12;glass=0;strokeWidth=1;shadow=0;fillColor=#fff2cc;strokeColor=#d6b656;" vertex="1" parent="WIyWlLk6GJQsqaUBKTNV-1">
          <mxGeometry x="30" y="200" width="120" height="40" as="geometry" />
        </mxCell>
        <mxCell id="858d7Q5gldCjWAl6JRSs-29" value="Obtener presentación asociada al fármaco" style="rounded=1;whiteSpace=wrap;html=1;fontSize=12;glass=0;strokeWidth=1;shadow=0;fillColor=#fff2cc;strokeColor=#d6b656;" vertex="1" parent="WIyWlLk6GJQsqaUBKTNV-1">
          <mxGeometry x="440" y="585" width="120" height="40" as="geometry" />
        </mxCell>
        <mxCell id="858d7Q5gldCjWAl6JRSs-33" value="if morfina -- concentracion = 10mg/ml o 20mg/ml" style="shape=note;whiteSpace=wrap;html=1;backgroundOutline=1;darkOpacity=0.05;fontSize=10;fontColor=#000000;" vertex="1" parent="WIyWlLk6GJQsqaUBKTNV-1">
          <mxGeometry x="294" y="195" width="316" height="40" as="geometry" />
        </mxCell>
        <mxCell id="858d7Q5gldCjWAl6JRSs-34" value="Mostrar receta" style="rounded=1;whiteSpace=wrap;html=1;fontSize=12;glass=0;strokeWidth=1;shadow=0;fillColor=#d5e8d4;strokeColor=#82b366;" vertex="1" parent="WIyWlLk6GJQsqaUBKTNV-1">
          <mxGeometry x="450" y="475" width="120" height="40" as="geometry" />
        </mxCell>
      </root>
    </mxGraphModel>
  </diagram>
  <diagram name="dosimetro" id="4pRGi38u3KTo8pwubZCF">
    <mxGraphModel dx="803" dy="474" grid="1" gridSize="10" guides="1" tooltips="1" connect="1" arrows="1" fold="1" page="1" pageScale="1" pageWidth="827" pageHeight="1169" math="0" shadow="0">
      <root>
        <mxCell id="2Izp3qoDKILhuXsn-0xH-0" />
        <mxCell id="2Izp3qoDKILhuXsn-0xH-1" parent="2Izp3qoDKILhuXsn-0xH-0" />
        <mxCell id="2Izp3qoDKILhuXsn-0xH-4" style="edgeStyle=orthogonalEdgeStyle;rounded=0;orthogonalLoop=1;jettySize=auto;html=1;fontSize=10;fontColor=#000000;" edge="1" parent="2Izp3qoDKILhuXsn-0xH-1" source="2Izp3qoDKILhuXsn-0xH-5">
          <mxGeometry relative="1" as="geometry">
            <mxPoint x="220.0344827586208" y="270" as="targetPoint" />
          </mxGeometry>
        </mxCell>
        <mxCell id="2Izp3qoDKILhuXsn-0xH-5" value="Elegir fármaco 1&lt;br&gt;&lt;div style=&quot;text-align: left;&quot;&gt;&lt;span style=&quot;background-color: initial;&quot;&gt;- Nombre&lt;/span&gt;&lt;/div&gt;&lt;div style=&quot;text-align: left;&quot;&gt;&lt;span style=&quot;background-color: initial;&quot;&gt;- Dosis actual&lt;/span&gt;&lt;/div&gt;" style="rounded=1;whiteSpace=wrap;html=1;fontSize=12;glass=0;strokeWidth=1;shadow=0;fillColor=#d5e8d4;strokeColor=#82b366;" vertex="1" parent="2Izp3qoDKILhuXsn-0xH-1">
          <mxGeometry x="160" y="180" width="120" height="70" as="geometry" />
        </mxCell>
        <mxCell id="CeZ-8LrnGWIf_zA1hC4d-4" style="edgeStyle=orthogonalEdgeStyle;rounded=0;orthogonalLoop=1;jettySize=auto;html=1;fontSize=10;fontColor=#000000;" edge="1" parent="2Izp3qoDKILhuXsn-0xH-1" source="2Izp3qoDKILhuXsn-0xH-9" target="2Izp3qoDKILhuXsn-0xH-14">
          <mxGeometry relative="1" as="geometry" />
        </mxCell>
        <mxCell id="2Izp3qoDKILhuXsn-0xH-9" value="&lt;div style=&quot;text-align: left;&quot;&gt;&lt;span style=&quot;background-color: initial;&quot;&gt;Elegir farmaco 2:&lt;/span&gt;&lt;/div&gt;&lt;div style=&quot;text-align: left;&quot;&gt;&lt;span style=&quot;background-color: initial;&quot;&gt;- Nombre&lt;/span&gt;&lt;/div&gt;&lt;div style=&quot;text-align: left;&quot;&gt;&lt;span style=&quot;background-color: initial;&quot;&gt;- Dosis actual&lt;/span&gt;&lt;/div&gt;" style="rounded=1;whiteSpace=wrap;html=1;fontSize=12;glass=0;strokeWidth=1;shadow=0;fillColor=#d5e8d4;strokeColor=#82b366;" vertex="1" parent="2Izp3qoDKILhuXsn-0xH-1">
          <mxGeometry x="160" y="270" width="120" height="50" as="geometry" />
        </mxCell>
        <mxCell id="2Izp3qoDKILhuXsn-0xH-12" style="edgeStyle=orthogonalEdgeStyle;rounded=0;orthogonalLoop=1;jettySize=auto;html=1;" edge="1" parent="2Izp3qoDKILhuXsn-0xH-1" source="2Izp3qoDKILhuXsn-0xH-14" target="2Izp3qoDKILhuXsn-0xH-16">
          <mxGeometry relative="1" as="geometry">
            <Array as="points">
              <mxPoint x="368" y="380" />
            </Array>
          </mxGeometry>
        </mxCell>
        <mxCell id="2Izp3qoDKILhuXsn-0xH-13" style="edgeStyle=orthogonalEdgeStyle;rounded=0;orthogonalLoop=1;jettySize=auto;html=1;fontSize=10;" edge="1" parent="2Izp3qoDKILhuXsn-0xH-1" source="2Izp3qoDKILhuXsn-0xH-14" target="2Izp3qoDKILhuXsn-0xH-19">
          <mxGeometry relative="1" as="geometry" />
        </mxCell>
        <mxCell id="2Izp3qoDKILhuXsn-0xH-14" value="¿añadir más fármacos?" style="rhombus;whiteSpace=wrap;html=1;" vertex="1" parent="2Izp3qoDKILhuXsn-0xH-1">
          <mxGeometry x="165" y="340" width="110" height="80" as="geometry" />
        </mxCell>
        <mxCell id="CeZ-8LrnGWIf_zA1hC4d-2" style="edgeStyle=orthogonalEdgeStyle;rounded=0;orthogonalLoop=1;jettySize=auto;html=1;entryX=0;entryY=0.5;entryDx=0;entryDy=0;fontSize=10;fontColor=#000000;" edge="1" parent="2Izp3qoDKILhuXsn-0xH-1" source="2Izp3qoDKILhuXsn-0xH-16" target="CeZ-8LrnGWIf_zA1hC4d-1">
          <mxGeometry relative="1" as="geometry" />
        </mxCell>
        <mxCell id="2Izp3qoDKILhuXsn-0xH-16" value="¿Qué fármaco modificar?" style="rounded=1;whiteSpace=wrap;html=1;fontSize=12;glass=0;strokeWidth=1;shadow=0;fillColor=#d5e8d4;strokeColor=#82b366;" vertex="1" parent="2Izp3qoDKILhuXsn-0xH-1">
          <mxGeometry x="320" y="360" width="110" height="40" as="geometry" />
        </mxCell>
        <mxCell id="2Izp3qoDKILhuXsn-0xH-17" value="&lt;font style=&quot;font-size: 10px;&quot;&gt;NO&lt;/font&gt;" style="text;html=1;strokeColor=none;fillColor=none;align=center;verticalAlign=middle;whiteSpace=wrap;rounded=0;" vertex="1" parent="2Izp3qoDKILhuXsn-0xH-1">
          <mxGeometry x="260" y="350" width="60" height="30" as="geometry" />
        </mxCell>
        <mxCell id="CeZ-8LrnGWIf_zA1hC4d-0" style="edgeStyle=orthogonalEdgeStyle;rounded=0;orthogonalLoop=1;jettySize=auto;html=1;fontSize=10;fontColor=#000000;entryX=0;entryY=0.5;entryDx=0;entryDy=0;exitX=0;exitY=0.5;exitDx=0;exitDy=0;" edge="1" parent="2Izp3qoDKILhuXsn-0xH-1" source="2Izp3qoDKILhuXsn-0xH-19" target="2Izp3qoDKILhuXsn-0xH-14">
          <mxGeometry relative="1" as="geometry">
            <mxPoint x="80" y="400" as="targetPoint" />
            <Array as="points">
              <mxPoint x="140" y="480" />
              <mxPoint x="140" y="380" />
            </Array>
          </mxGeometry>
        </mxCell>
        <mxCell id="2Izp3qoDKILhuXsn-0xH-19" value="Elegir fármaco N&lt;br&gt;- Nombre&lt;br&gt;- Dosis actual" style="rounded=1;whiteSpace=wrap;html=1;fontSize=12;glass=0;strokeWidth=1;shadow=0;fillColor=#d5e8d4;strokeColor=#82b366;align=left;" vertex="1" parent="2Izp3qoDKILhuXsn-0xH-1">
          <mxGeometry x="160" y="445" width="120" height="70" as="geometry" />
        </mxCell>
        <mxCell id="2Izp3qoDKILhuXsn-0xH-20" value="&lt;font style=&quot;font-size: 10px;&quot;&gt;SÍ&lt;/font&gt;" style="text;html=1;strokeColor=none;fillColor=none;align=center;verticalAlign=middle;whiteSpace=wrap;rounded=0;" vertex="1" parent="2Izp3qoDKILhuXsn-0xH-1">
          <mxGeometry x="215" y="410" width="60" height="30" as="geometry" />
        </mxCell>
        <mxCell id="2Izp3qoDKILhuXsn-0xH-25" value="Comprobar dosis máxima" style="rounded=1;whiteSpace=wrap;html=1;fontSize=12;glass=0;strokeWidth=1;shadow=0;fillColor=#f8cecc;strokeColor=#b85450;" vertex="1" parent="2Izp3qoDKILhuXsn-0xH-1">
          <mxGeometry x="30" y="195" width="120" height="40" as="geometry" />
        </mxCell>
        <mxCell id="2Izp3qoDKILhuXsn-0xH-26" value="Comprobar dosis máxima" style="rounded=1;whiteSpace=wrap;html=1;fontSize=12;glass=0;strokeWidth=1;shadow=0;fillColor=#f8cecc;strokeColor=#b85450;" vertex="1" parent="2Izp3qoDKILhuXsn-0xH-1">
          <mxGeometry x="446" y="300" width="120" height="40" as="geometry" />
        </mxCell>
        <mxCell id="2Izp3qoDKILhuXsn-0xH-30" value="Calcular nuevas dosis" style="rounded=1;whiteSpace=wrap;html=1;fontSize=12;glass=0;strokeWidth=1;shadow=0;fillColor=#dae8fc;strokeColor=#6c8ebf;" vertex="1" parent="2Izp3qoDKILhuXsn-0xH-1">
          <mxGeometry x="600" y="360" width="120" height="40" as="geometry" />
        </mxCell>
        <mxCell id="CeZ-8LrnGWIf_zA1hC4d-3" style="edgeStyle=orthogonalEdgeStyle;rounded=0;orthogonalLoop=1;jettySize=auto;html=1;fontSize=10;fontColor=#000000;" edge="1" parent="2Izp3qoDKILhuXsn-0xH-1" source="CeZ-8LrnGWIf_zA1hC4d-1" target="2Izp3qoDKILhuXsn-0xH-30">
          <mxGeometry relative="1" as="geometry" />
        </mxCell>
        <mxCell id="CeZ-8LrnGWIf_zA1hC4d-1" value="Elegir nueva dosis del fármaco X" style="rounded=1;whiteSpace=wrap;html=1;fontSize=12;glass=0;strokeWidth=1;shadow=0;fillColor=#d5e8d4;strokeColor=#82b366;" vertex="1" parent="2Izp3qoDKILhuXsn-0xH-1">
          <mxGeometry x="460" y="360" width="116" height="40" as="geometry" />
        </mxCell>
      </root>
    </mxGraphModel>
  </diagram>
</mxfile>
